<svg xmlns="http://www.w3.org/2000/svg" viewBox="0 0 63 62"><defs><style>.cls-1{fill:#e9eaeb;}.cls-2,.cls-4{fill:#fff;}.cls-3{fill:none;}.cls-3,.cls-4,.cls-5{stroke:#2a5082;stroke-miterlimit:10;stroke-width:2px;}.cls-5,.cls-6{fill:#a3d4ff;}</style></defs><title>Recurso 2</title><g id="Capa_2" data-name="Capa 2"><g id="icons"><circle class="cls-1" cx="28.5" cy="26.5" r="26.5"/><path class="cls-2" d="M58,9H27a4,4,0,0,0-4,4V43H58a4,4,0,0,0,4-4V13A4,4,0,0,0,58,9Z"/><path class="cls-3" d="M23,26V13a4,4,0,0,1,4-4H58a4,4,0,0,1,4,4V39a4,4,0,0,1-4,4H30"/><polygon class="cls-1" points="30 20 30 36 30 37 38 37 38 20 30 20"/><polyline class="cls-3" points="30 26 30 20 38 20 38 37 30 37 30 36"/><rect class="cls-4" x="38" y="27" width="8" height="10"/><rect class="cls-5" x="46" y="16" width="8" height="21"/><path class="cls-4" d="M11.5,25.76A4.55,4.55,0,0,0,16,21.05V19.48a4.5,4.5,0,1,0-9,0v1.57A4.55,4.55,0,0,0,11.5,25.76Z"/><path class="cls-5" d="M32,29H9c-4.75,0-8,1.51-8,6v9a4.08,4.08,0,0,0,4,4H18V34h9A5.18,5.18,0,0,0,32,29Z"/><rect class="cls-6" x="6" y="35" width="12" height="27"/><line class="cls-3" x1="18" y1="35" x2="18" y2="62"/><line class="cls-3" x1="12" y1="46" x2="12" y2="62"/><line class="cls-3" x1="6" y1="35" x2="6" y2="62"/><line class="cls-3" x1="24" y1="43" x2="22" y2="43"/><line class="cls-3" x1="26" y1="43" x2="28" y2="43"/></g></g></svg>